<svg width="1280" height="999" viewBox="0 0 1280 999" fill="none" xmlns="http://www.w3.org/2000/svg">
<rect width="1280" height="999" fill="#F5F5F5"/>
<rect x="0.5" y="167.5" width="1279" height="831" fill="white"/>
<rect x="0.5" y="167.5" width="1279" height="831" stroke="black"/>
<g filter="url(#filter0_d_2_65)">
<path d="M336.688 482.04L367.585 521.604" stroke="#1B3A5C" stroke-width="15" stroke-linecap="round"/>
</g>
<rect x="245.5" y="389.5" width="99" height="97" rx="6.5" fill="#163460" stroke="#163460"/>
<mask id="path-4-inside-1_2_65" fill="white">
<path d="M400.469 487V391H417.859V472.422H460.141V487H400.469ZM520.305 487H501.742L535.539 391H557.008L590.852 487H572.289L546.648 410.688H545.898L520.305 487ZM520.914 449.359H571.539V463.328H520.914V449.359ZM636.238 487V391H672.238C679.613 391 685.801 392.281 690.801 394.844C695.832 397.406 699.629 401 702.191 405.625C704.785 410.219 706.082 415.578 706.082 421.703C706.082 427.859 704.77 433.203 702.145 437.734C699.551 442.234 695.723 445.719 690.66 448.187C685.598 450.625 679.379 451.844 672.004 451.844H646.363V437.406H669.66C673.973 437.406 677.504 436.812 680.254 435.625C683.004 434.406 685.035 432.641 686.348 430.328C687.691 427.984 688.363 425.109 688.363 421.703C688.363 418.297 687.691 415.391 686.348 412.984C685.004 410.547 682.957 408.703 680.207 407.453C677.457 406.172 673.91 405.531 669.566 405.531H653.629V487H636.238ZM685.832 443.5L709.598 487H690.191L666.848 443.5H685.832ZM772.223 391V487H754.832V391H772.223ZM823.797 487V391H885.297V405.578H841.188V431.641H881.078V446.219H841.188V487H823.797ZM927.32 391H946.961L970.445 433.469H971.383L994.867 391H1014.51L979.586 451.188V487H962.242V451.188L927.32 391Z"/>
</mask>
<g filter="url(#filter1_i_2_65)">
<path d="M400.469 487V391H417.859V472.422H460.141V487H400.469ZM520.305 487H501.742L535.539 391H557.008L590.852 487H572.289L546.648 410.688H545.898L520.305 487ZM520.914 449.359H571.539V463.328H520.914V449.359ZM636.238 487V391H672.238C679.613 391 685.801 392.281 690.801 394.844C695.832 397.406 699.629 401 702.191 405.625C704.785 410.219 706.082 415.578 706.082 421.703C706.082 427.859 704.77 433.203 702.145 437.734C699.551 442.234 695.723 445.719 690.66 448.187C685.598 450.625 679.379 451.844 672.004 451.844H646.363V437.406H669.66C673.973 437.406 677.504 436.812 680.254 435.625C683.004 434.406 685.035 432.641 686.348 430.328C687.691 427.984 688.363 425.109 688.363 421.703C688.363 418.297 687.691 415.391 686.348 412.984C685.004 410.547 682.957 408.703 680.207 407.453C677.457 406.172 673.91 405.531 669.566 405.531H653.629V487H636.238ZM685.832 443.5L709.598 487H690.191L666.848 443.5H685.832ZM772.223 391V487H754.832V391H772.223ZM823.797 487V391H885.297V405.578H841.188V431.641H881.078V446.219H841.188V487H823.797ZM927.32 391H946.961L970.445 433.469H971.383L994.867 391H1014.51L979.586 451.188V487H962.242V451.188L927.32 391Z" fill="#163460"/>
</g>
<path d="M400.469 487H399.469V488H400.469V487ZM400.469 391V390H399.469V391H400.469ZM417.859 391H418.859V390H417.859V391ZM417.859 472.422H416.859V473.422H417.859V472.422ZM460.141 472.422H461.141V471.422H460.141V472.422ZM460.141 487V488H461.141V487H460.141ZM400.469 487H401.469V391H400.469H399.469V487H400.469ZM400.469 391V392H417.859V391V390H400.469V391ZM417.859 391H416.859V472.422H417.859H418.859V391H417.859ZM417.859 472.422V473.422H460.141V472.422V471.422H417.859V472.422ZM460.141 472.422H459.141V487H460.141H461.141V472.422H460.141ZM460.141 487V486H400.469V487V488H460.141V487ZM520.305 487V488H521.024L521.253 487.318L520.305 487ZM501.742 487L500.799 486.668L500.33 488H501.742V487ZM535.539 391V390H534.831L534.596 390.668L535.539 391ZM557.008 391L557.951 390.668L557.716 390H557.008V391ZM590.852 487V488H592.264L591.795 486.668L590.852 487ZM572.289 487L571.341 487.318L571.57 488H572.289V487ZM546.648 410.688L547.596 410.369L547.367 409.688H546.648V410.688ZM545.898 410.688V409.688H545.179L544.95 410.37L545.898 410.688ZM520.914 449.359V448.359H519.914V449.359H520.914ZM571.539 449.359H572.539V448.359H571.539V449.359ZM571.539 463.328V464.328H572.539V463.328H571.539ZM520.914 463.328H519.914V464.328H520.914V463.328ZM520.305 487V486H501.742V487V488H520.305V487ZM501.742 487L502.685 487.332L536.482 391.332L535.539 391L534.596 390.668L500.799 486.668L501.742 487ZM535.539 391V392H557.008V391V390H535.539V391ZM557.008 391L556.065 391.332L589.908 487.332L590.852 487L591.795 486.668L557.951 390.668L557.008 391ZM590.852 487V486H572.289V487V488H590.852V487ZM572.289 487L573.237 486.682L547.596 410.369L546.648 410.688L545.701 411.006L571.341 487.318L572.289 487ZM546.648 410.688V409.688H545.898V410.688V411.688H546.648V410.688ZM545.898 410.688L544.95 410.37L519.357 486.682L520.305 487L521.253 487.318L546.847 411.005L545.898 410.688ZM520.914 449.359V450.359H571.539V449.359V448.359H520.914V449.359ZM571.539 449.359H570.539V463.328H571.539H572.539V449.359H571.539ZM571.539 463.328V462.328H520.914V463.328V464.328H571.539V463.328ZM520.914 463.328H521.914V449.359H520.914H519.914V463.328H520.914ZM636.238 487H635.238V488H636.238V487ZM636.238 391V390H635.238V391H636.238ZM690.801 394.844L690.345 395.734L690.347 395.735L690.801 394.844ZM702.191 405.625L701.317 406.11L701.321 406.117L702.191 405.625ZM702.145 437.734L701.279 437.233L701.278 437.235L702.145 437.734ZM690.66 448.188L691.094 449.089L691.098 449.086L690.66 448.188ZM646.363 451.844H645.363V452.844H646.363V451.844ZM646.363 437.406V436.406H645.363V437.406H646.363ZM680.254 435.625L680.65 436.543L680.659 436.539L680.254 435.625ZM686.348 430.328L685.48 429.831L685.478 429.835L686.348 430.328ZM686.348 412.984L685.472 413.467L685.475 413.472L686.348 412.984ZM680.207 407.453L679.785 408.36L679.793 408.363L680.207 407.453ZM653.629 405.531V404.531H652.629V405.531H653.629ZM653.629 487V488H654.629V487H653.629ZM685.832 443.5L686.71 443.021L686.425 442.5H685.832V443.5ZM709.598 487V488H711.284L710.475 486.521L709.598 487ZM690.191 487L689.31 487.473L689.593 488H690.191V487ZM666.848 443.5V442.5H665.176L665.967 443.973L666.848 443.5ZM636.238 487H637.238V391H636.238H635.238V487H636.238ZM636.238 391V392H672.238V391V390H636.238V391ZM672.238 391V392C679.502 392 685.523 393.263 690.345 395.734L690.801 394.844L691.257 393.954C686.079 391.3 679.724 390 672.238 390V391ZM690.801 394.844L690.347 395.735C695.213 398.213 698.857 401.671 701.317 406.11L702.191 405.625L703.066 405.14C700.4 400.329 696.451 396.599 691.255 393.953L690.801 394.844ZM702.191 405.625L701.321 406.117C703.817 410.538 705.082 415.722 705.082 421.703H706.082H707.082C707.082 415.434 705.753 409.9 703.062 405.133L702.191 405.625ZM706.082 421.703H705.082C705.082 427.714 703.802 432.879 701.279 437.233L702.145 437.734L703.01 438.236C705.737 433.527 707.082 428.004 707.082 421.703H706.082ZM702.145 437.734L701.278 437.235C698.792 441.547 695.121 444.9 690.222 447.289L690.66 448.188L691.098 449.086C696.324 446.538 700.309 442.921 703.011 438.234L702.145 437.734ZM690.66 448.188L690.226 447.286C685.335 449.642 679.274 450.844 672.004 450.844V451.844V452.844C679.484 452.844 685.861 451.608 691.094 449.089L690.66 448.188ZM672.004 451.844V450.844H646.363V451.844V452.844H672.004V451.844ZM646.363 451.844H647.363V437.406H646.363H645.363V451.844H646.363ZM646.363 437.406V438.406H669.66V437.406V436.406H646.363V437.406ZM669.66 437.406V438.406C674.054 438.406 677.733 437.803 680.65 436.543L680.254 435.625L679.857 434.707C677.275 435.822 673.892 436.406 669.66 436.406V437.406ZM680.254 435.625L680.659 436.539C683.578 435.246 685.785 433.345 687.217 430.822L686.348 430.328L685.478 429.835C684.285 431.937 682.43 433.567 679.849 434.711L680.254 435.625ZM686.348 430.328L687.215 430.826C688.666 428.296 689.363 425.239 689.363 421.703H688.363H687.363C687.363 424.98 686.717 427.673 685.48 429.831L686.348 430.328ZM688.363 421.703H689.363C689.363 418.166 688.665 415.083 687.221 412.497L686.348 412.984L685.475 413.472C686.718 415.698 687.363 418.428 687.363 421.703H688.363ZM686.348 412.984L687.223 412.502C685.767 409.859 683.549 407.874 680.621 406.543L680.207 407.453L679.793 408.363C682.365 409.532 684.241 411.235 685.472 413.467L686.348 412.984ZM680.207 407.453L680.629 406.547C677.703 405.183 673.998 404.531 669.566 404.531V405.531V406.531C673.823 406.531 677.211 407.161 679.785 408.36L680.207 407.453ZM669.566 405.531V404.531H653.629V405.531V406.531H669.566V405.531ZM653.629 405.531H652.629V487H653.629H654.629V405.531H653.629ZM653.629 487V486H636.238V487V488H653.629V487ZM685.832 443.5L684.954 443.979L708.72 487.479L709.598 487L710.475 486.521L686.71 443.021L685.832 443.5ZM709.598 487V486H690.191V487V488H709.598V487ZM690.191 487L691.073 486.527L667.729 443.027L666.848 443.5L665.967 443.973L689.31 487.473L690.191 487ZM666.848 443.5V444.5H685.832V443.5V442.5H666.848V443.5ZM772.223 391H773.223V390H772.223V391ZM772.223 487V488H773.223V487H772.223ZM754.832 487H753.832V488H754.832V487ZM754.832 391V390H753.832V391H754.832ZM772.223 391H771.223V487H772.223H773.223V391H772.223ZM772.223 487V486H754.832V487V488H772.223V487ZM754.832 487H755.832V391H754.832H753.832V487H754.832ZM754.832 391V392H772.223V391V390H754.832V391ZM823.797 487H822.797V488H823.797V487ZM823.797 391V390H822.797V391H823.797ZM885.297 391H886.297V390H885.297V391ZM885.297 405.578V406.578H886.297V405.578H885.297ZM841.188 405.578V404.578H840.188V405.578H841.188ZM841.188 431.641H840.188V432.641H841.188V431.641ZM881.078 431.641H882.078V430.641H881.078V431.641ZM881.078 446.219V447.219H882.078V446.219H881.078ZM841.188 446.219V445.219H840.188V446.219H841.188ZM841.188 487V488H842.188V487H841.188ZM823.797 487H824.797V391H823.797H822.797V487H823.797ZM823.797 391V392H885.297V391V390H823.797V391ZM885.297 391H884.297V405.578H885.297H886.297V391H885.297ZM885.297 405.578V404.578H841.188V405.578V406.578H885.297V405.578ZM841.188 405.578H840.188V431.641H841.188H842.188V405.578H841.188ZM841.188 431.641V432.641H881.078V431.641V430.641H841.188V431.641ZM881.078 431.641H880.078V446.219H881.078H882.078V431.641H881.078ZM881.078 446.219V445.219H841.188V446.219V447.219H881.078V446.219ZM841.188 446.219H840.188V487H841.188H842.188V446.219H841.188ZM841.188 487V486H823.797V487V488H841.188V487ZM927.32 391V390H925.584L926.455 391.502L927.32 391ZM946.961 391L947.836 390.516L947.551 390H946.961V391ZM970.445 433.469L969.57 433.953L969.856 434.469H970.445V433.469ZM971.383 433.469V434.469H971.973L972.258 433.953L971.383 433.469ZM994.867 391V390H994.277L993.992 390.516L994.867 391ZM1014.51 391L1015.37 391.502L1016.24 390H1014.51V391ZM979.586 451.188L978.721 450.686L978.586 450.918V451.188H979.586ZM979.586 487V488H980.586V487H979.586ZM962.242 487H961.242V488H962.242V487ZM962.242 451.188H963.242V450.918L963.107 450.686L962.242 451.188ZM927.32 391V392H946.961V391V390H927.32V391ZM946.961 391L946.086 391.484L969.57 433.953L970.445 433.469L971.32 432.985L947.836 390.516L946.961 391ZM970.445 433.469V434.469H971.383V433.469V432.469H970.445V433.469ZM971.383 433.469L972.258 433.953L995.742 391.484L994.867 391L993.992 390.516L970.508 432.985L971.383 433.469ZM994.867 391V392H1014.51V391V390H994.867V391ZM1014.51 391L1013.64 390.498L978.721 450.686L979.586 451.188L980.451 451.689L1015.37 391.502L1014.51 391ZM979.586 451.188H978.586V487H979.586H980.586V451.188H979.586ZM979.586 487V486H962.242V487V488H979.586V487ZM962.242 487H963.242V451.188H962.242H961.242V487H962.242ZM962.242 451.188L963.107 450.686L928.185 390.498L927.32 391L926.455 391.502L961.377 451.689L962.242 451.188Z" fill="#163460" mask="url(#path-4-inside-1_2_65)"/>
<mask id="path-6-inside-2_2_65" fill="white">
<path d="M440.739 579V520.818H451.278V545.449H478.239V520.818H488.807V579H478.239V554.284H451.278V579H440.739ZM520.114 579V520.818H557.955V529.653H530.653V545.449H555.994V554.284H530.653V570.165H558.182V579H520.114ZM596.023 579H584.773L605.256 520.818H618.267L638.778 579H627.528L611.989 532.75H611.534L596.023 579ZM596.392 556.188H627.074V564.653H596.392V556.188ZM666.286 579V520.818H676.825V570.165H702.45V579H666.286ZM728.885 529.653V520.818H775.305V529.653H757.322V579H746.868V529.653H728.885ZM804.098 579V520.818H814.638V545.449H841.598V520.818H852.166V579H841.598V554.284H814.638V579H804.098Z"/>
</mask>
<path d="M440.739 579V520.818H451.278V545.449H478.239V520.818H488.807V579H478.239V554.284H451.278V579H440.739ZM520.114 579V520.818H557.955V529.653H530.653V545.449H555.994V554.284H530.653V570.165H558.182V579H520.114ZM596.023 579H584.773L605.256 520.818H618.267L638.778 579H627.528L611.989 532.75H611.534L596.023 579ZM596.392 556.188H627.074V564.653H596.392V556.188ZM666.286 579V520.818H676.825V570.165H702.45V579H666.286ZM728.885 529.653V520.818H775.305V529.653H757.322V579H746.868V529.653H728.885ZM804.098 579V520.818H814.638V545.449H841.598V520.818H852.166V579H841.598V554.284H814.638V579H804.098Z" fill="#E8835F"/>
<path d="M440.739 579H422.739V597H440.739V579ZM440.739 520.818V502.818H422.739V520.818H440.739ZM451.278 520.818H469.278V502.818H451.278V520.818ZM451.278 545.449H433.278V563.449H451.278V545.449ZM478.239 545.449V563.449H496.239V545.449H478.239ZM478.239 520.818V502.818H460.239V520.818H478.239ZM488.807 520.818H506.807V502.818H488.807V520.818ZM488.807 579V597H506.807V579H488.807ZM478.239 579H460.239V597H478.239V579ZM478.239 554.284H496.239V536.284H478.239V554.284ZM451.278 554.284V536.284H433.278V554.284H451.278ZM451.278 579V597H469.278V579H451.278ZM440.739 579H458.739V520.818H440.739H422.739V579H440.739ZM440.739 520.818V538.818H451.278V520.818V502.818H440.739V520.818ZM451.278 520.818H433.278V545.449H451.278H469.278V520.818H451.278ZM451.278 545.449V563.449H478.239V545.449V527.449H451.278V545.449ZM478.239 545.449H496.239V520.818H478.239H460.239V545.449H478.239ZM478.239 520.818V538.818H488.807V520.818V502.818H478.239V520.818ZM488.807 520.818H470.807V579H488.807H506.807V520.818H488.807ZM488.807 579V561H478.239V579V597H488.807V579ZM478.239 579H496.239V554.284H478.239H460.239V579H478.239ZM478.239 554.284V536.284H451.278V554.284V572.284H478.239V554.284ZM451.278 554.284H433.278V579H451.278H469.278V554.284H451.278ZM451.278 579V561H440.739V579V597H451.278V579ZM520.114 579H502.114V597H520.114V579ZM520.114 520.818V502.818H502.114V520.818H520.114ZM557.955 520.818H575.955V502.818H557.955V520.818ZM557.955 529.653V547.653H575.955V529.653H557.955ZM530.653 529.653V511.653H512.653V529.653H530.653ZM530.653 545.449H512.653V563.449H530.653V545.449ZM555.994 545.449H573.994V527.449H555.994V545.449ZM555.994 554.284V572.284H573.994V554.284H555.994ZM530.653 554.284V536.284H512.653V554.284H530.653ZM530.653 570.165H512.653V588.165H530.653V570.165ZM558.182 570.165H576.182V552.165H558.182V570.165ZM558.182 579V597H576.182V579H558.182ZM520.114 579H538.114V520.818H520.114H502.114V579H520.114ZM520.114 520.818V538.818H557.955V520.818V502.818H520.114V520.818ZM557.955 520.818H539.955V529.653H557.955H575.955V520.818H557.955ZM557.955 529.653V511.653H530.653V529.653V547.653H557.955V529.653ZM530.653 529.653H512.653V545.449H530.653H548.653V529.653H530.653ZM530.653 545.449V563.449H555.994V545.449V527.449H530.653V545.449ZM555.994 545.449H537.994V554.284H555.994H573.994V545.449H555.994ZM555.994 554.284V536.284H530.653V554.284V572.284H555.994V554.284ZM530.653 554.284H512.653V570.165H530.653H548.653V554.284H530.653ZM530.653 570.165V588.165H558.182V570.165V552.165H530.653V570.165ZM558.182 570.165H540.182V579H558.182H576.182V570.165H558.182ZM558.182 579V561H520.114V579V597H558.182V579ZM596.023 579V597H608.971L613.089 584.724L596.023 579ZM584.773 579L567.794 573.023L559.353 597H584.773V579ZM605.256 520.818V502.818H592.51L588.277 514.841L605.256 520.818ZM618.267 520.818L635.243 514.833L631.007 502.818H618.267V520.818ZM638.778 579V597H664.21L655.754 573.015L638.778 579ZM627.528 579L610.466 584.733L614.587 597H627.528V579ZM611.989 532.75L629.051 527.017L624.93 514.75H611.989V532.75ZM611.534 532.75V514.75H598.586L594.468 527.026L611.534 532.75ZM596.392 556.188V538.188H578.392V556.188H596.392ZM627.074 556.188H645.074V538.188H627.074V556.188ZM627.074 564.653V582.653H645.074V564.653H627.074ZM596.392 564.653H578.392V582.653H596.392V564.653ZM596.023 579V561H584.773V579V597H596.023V579ZM584.773 579L601.751 584.977L622.234 526.795L605.256 520.818L588.277 514.841L567.794 573.023L584.773 579ZM605.256 520.818V538.818H618.267V520.818V502.818H605.256V520.818ZM618.267 520.818L601.291 526.803L621.802 584.985L638.778 579L655.754 573.015L635.243 514.833L618.267 520.818ZM638.778 579V561H627.528V579V597H638.778V579ZM627.528 579L644.591 573.267L629.051 527.017L611.989 532.75L594.926 538.483L610.466 584.733L627.528 579ZM611.989 532.75V514.75H611.534V532.75V550.75H611.989V532.75ZM611.534 532.75L594.468 527.026L578.957 573.276L596.023 579L613.089 584.724L628.6 538.474L611.534 532.75ZM596.392 556.188V574.188H627.074V556.188V538.188H596.392V556.188ZM627.074 556.188H609.074V564.653H627.074H645.074V556.188H627.074ZM627.074 564.653V546.653H596.392V564.653V582.653H627.074V564.653ZM596.392 564.653H614.392V556.188H596.392H578.392V564.653H596.392ZM666.286 579H648.286V597H666.286V579ZM666.286 520.818V502.818H648.286V520.818H666.286ZM676.825 520.818H694.825V502.818H676.825V520.818ZM676.825 570.165H658.825V588.165H676.825V570.165ZM702.45 570.165H720.45V552.165H702.45V570.165ZM702.45 579V597H720.45V579H702.45ZM666.286 579H684.286V520.818H666.286H648.286V579H666.286ZM666.286 520.818V538.818H676.825V520.818V502.818H666.286V520.818ZM676.825 520.818H658.825V570.165H676.825H694.825V520.818H676.825ZM676.825 570.165V588.165H702.45V570.165V552.165H676.825V570.165ZM702.45 570.165H684.45V579H702.45H720.45V570.165H702.45ZM702.45 579V561H666.286V579V597H702.45V579ZM728.885 529.653H710.885V547.653H728.885V529.653ZM728.885 520.818V502.818H710.885V520.818H728.885ZM775.305 520.818H793.305V502.818H775.305V520.818ZM775.305 529.653V547.653H793.305V529.653H775.305ZM757.322 529.653V511.653H739.322V529.653H757.322ZM757.322 579V597H775.322V579H757.322ZM746.868 579H728.868V597H746.868V579ZM746.868 529.653H764.868V511.653H746.868V529.653ZM728.885 529.653H746.885V520.818H728.885H710.885V529.653H728.885ZM728.885 520.818V538.818H775.305V520.818V502.818H728.885V520.818ZM775.305 520.818H757.305V529.653H775.305H793.305V520.818H775.305ZM775.305 529.653V511.653H757.322V529.653V547.653H775.305V529.653ZM757.322 529.653H739.322V579H757.322H775.322V529.653H757.322ZM757.322 579V561H746.868V579V597H757.322V579ZM746.868 579H764.868V529.653H746.868H728.868V579H746.868ZM746.868 529.653V511.653H728.885V529.653V547.653H746.868V529.653ZM804.098 579H786.098V597H804.098V579ZM804.098 520.818V502.818H786.098V520.818H804.098ZM814.638 520.818H832.638V502.818H814.638V520.818ZM814.638 545.449H796.638V563.449H814.638V545.449ZM841.598 545.449V563.449H859.598V545.449H841.598ZM841.598 520.818V502.818H823.598V520.818H841.598ZM852.166 520.818H870.166V502.818H852.166V520.818ZM852.166 579V597H870.166V579H852.166ZM841.598 579H823.598V597H841.598V579ZM841.598 554.284H859.598V536.284H841.598V554.284ZM814.638 554.284V536.284H796.638V554.284H814.638ZM814.638 579V597H832.638V579H814.638ZM804.098 579H822.098V520.818H804.098H786.098V579H804.098ZM804.098 520.818V538.818H814.638V520.818V502.818H804.098V520.818ZM814.638 520.818H796.638V545.449H814.638H832.638V520.818H814.638ZM814.638 545.449V563.449H841.598V545.449V527.449H814.638V545.449ZM841.598 545.449H859.598V520.818H841.598H823.598V545.449H841.598ZM841.598 520.818V538.818H852.166V520.818V502.818H841.598V520.818ZM852.166 520.818H834.166V579H852.166H870.166V520.818H852.166ZM852.166 579V561H841.598V579V597H852.166V579ZM841.598 579H859.598V554.284H841.598H823.598V579H841.598ZM841.598 554.284V536.284H814.638V554.284V572.284H841.598V554.284ZM814.638 554.284H796.638V579H814.638H832.638V554.284H814.638ZM814.638 579V561H804.098V579V597H814.638V579Z" fill="#E8835F" mask="url(#path-6-inside-2_2_65)"/>
<path d="M265 414C265 410.134 268.134 407 272 407H318C321.866 407 325 410.134 325 414V462C325 465.866 321.866 469 318 469H272C268.134 469 265 465.866 265 462V414Z" fill="#F5F5F5"/>
<rect x="793" width="154" height="154" fill="#F0F5F8"/>
<path d="M457.423 29.954C457.423 29.694 457.393 29.5033 457.332 29.382C457.28 29.252 457.176 29.161 457.02 29.109C456.864 29.057 456.617 29.031 456.279 29.031C456.253 29.031 456.24 29.005 456.24 28.953C456.24 28.901 456.253 28.875 456.279 28.875L456.903 28.888C457.284 28.9053 457.601 28.914 457.852 28.914C458.086 28.914 458.385 28.9053 458.749 28.888L459.386 28.875C459.412 28.875 459.425 28.901 459.425 28.953C459.425 29.005 459.412 29.031 459.386 29.031C459.057 29.031 458.814 29.057 458.658 29.109C458.502 29.1523 458.394 29.2347 458.333 29.356C458.281 29.4773 458.255 29.668 458.255 29.928V35.947C458.255 36.207 458.281 36.402 458.333 36.532C458.394 36.6533 458.502 36.7357 458.658 36.779C458.814 36.8223 459.057 36.844 459.386 36.844C459.412 36.844 459.425 36.87 459.425 36.922C459.425 36.974 459.412 37 459.386 37C459.117 37 458.905 36.9957 458.749 36.987L457.852 36.974L456.903 36.987C456.747 36.9957 456.539 37 456.279 37C456.253 37 456.24 36.974 456.24 36.922C456.24 36.87 456.253 36.844 456.279 36.844C456.617 36.844 456.864 36.8223 457.02 36.779C457.176 36.7357 457.28 36.6533 457.332 36.532C457.393 36.402 457.423 36.207 457.423 35.947V29.954ZM451.976 32.632H457.787V32.905H451.976V32.632ZM451.599 29.928C451.599 29.668 451.569 29.4773 451.508 29.356C451.456 29.2347 451.352 29.1523 451.196 29.109C451.04 29.057 450.797 29.031 450.468 29.031C450.451 29.031 450.442 29.005 450.442 28.953C450.442 28.901 450.451 28.875 450.468 28.875L451.131 28.888C451.495 28.9053 451.785 28.914 452.002 28.914C452.253 28.914 452.57 28.9053 452.951 28.888L453.575 28.875C453.592 28.875 453.601 28.901 453.601 28.953C453.601 29.005 453.592 29.031 453.575 29.031C453.246 29.031 452.999 29.057 452.834 29.109C452.678 29.161 452.57 29.252 452.509 29.382C452.457 29.5033 452.431 29.694 452.431 29.954V35.947C452.431 36.207 452.457 36.402 452.509 36.532C452.57 36.6533 452.678 36.7357 452.834 36.779C452.99 36.8223 453.237 36.844 453.575 36.844C453.592 36.844 453.601 36.87 453.601 36.922C453.601 36.974 453.592 37 453.575 37C453.306 37 453.094 36.9957 452.938 36.987L452.002 36.974L451.105 36.987C450.949 36.9957 450.732 37 450.455 37C450.438 37 450.429 36.974 450.429 36.922C450.429 36.87 450.438 36.844 450.455 36.844C450.784 36.844 451.027 36.8223 451.183 36.779C451.348 36.7357 451.456 36.6533 451.508 36.532C451.569 36.402 451.599 36.207 451.599 35.947V29.928ZM460.423 37C460.406 37 460.397 36.974 460.397 36.922C460.397 36.87 460.406 36.844 460.423 36.844C460.753 36.844 460.991 36.8223 461.138 36.779C461.294 36.7357 461.398 36.6533 461.45 36.532C461.511 36.402 461.541 36.207 461.541 35.947V29.928C461.541 29.668 461.511 29.4773 461.45 29.356C461.398 29.2347 461.294 29.1523 461.138 29.109C460.991 29.057 460.753 29.031 460.423 29.031C460.406 29.031 460.397 29.005 460.397 28.953C460.397 28.901 460.406 28.875 460.423 28.875H465.649C465.727 28.875 465.766 28.914 465.766 28.992L465.792 30.591C465.792 30.617 465.766 30.6343 465.714 30.643C465.671 30.643 465.649 30.63 465.649 30.604C465.623 30.1447 465.485 29.7893 465.233 29.538C464.982 29.278 464.648 29.148 464.232 29.148H463.439C463.136 29.148 462.911 29.174 462.763 29.226C462.616 29.2693 462.512 29.3473 462.451 29.46C462.399 29.5727 462.373 29.7503 462.373 29.993V35.895C462.373 36.129 462.399 36.3067 462.451 36.428C462.512 36.5407 462.612 36.6187 462.75 36.662C462.889 36.7053 463.106 36.727 463.4 36.727H464.44C464.856 36.727 465.203 36.5797 465.48 36.285C465.758 35.9903 465.944 35.583 466.039 35.063C466.039 35.0457 466.057 35.037 466.091 35.037C466.117 35.037 466.139 35.0457 466.156 35.063C466.182 35.0717 466.195 35.0803 466.195 35.089C466.117 35.635 466.078 36.207 466.078 36.805C466.078 36.8743 466.061 36.9263 466.026 36.961C466 36.987 465.948 37 465.87 37H460.423ZM465.142 33.971C465.142 33.5897 465.047 33.3167 464.856 33.152C464.674 32.9873 464.367 32.905 463.933 32.905H461.983V32.632H463.972C464.388 32.632 464.683 32.5627 464.856 32.424C465.038 32.2853 465.129 32.0513 465.129 31.722C465.129 31.7047 465.155 31.696 465.207 31.696C465.259 31.696 465.285 31.7047 465.285 31.722L465.272 32.775C465.272 33.0263 465.277 33.217 465.285 33.347L465.298 33.971C465.298 33.9883 465.272 33.997 465.22 33.997C465.168 33.997 465.142 33.9883 465.142 33.971ZM469.499 33.165H472.944L473.035 33.425H469.369L469.499 33.165ZM475.934 36.844C475.968 36.844 475.986 36.87 475.986 36.922C475.986 36.974 475.968 37 475.934 37C475.769 37 475.513 36.9913 475.167 36.974C474.82 36.9567 474.569 36.948 474.413 36.948C474.222 36.948 473.979 36.9567 473.685 36.974C473.407 36.9913 473.195 37 473.048 37C473.013 37 472.996 36.974 472.996 36.922C472.996 36.87 473.013 36.844 473.048 36.844C473.377 36.844 473.611 36.8137 473.75 36.753C473.897 36.6923 473.971 36.584 473.971 36.428C473.971 36.298 473.919 36.116 473.815 35.882L470.929 29.785L471.254 29.382L468.732 35.349C468.61 35.6437 468.55 35.8863 468.55 36.077C468.55 36.5883 468.974 36.844 469.824 36.844C469.867 36.844 469.889 36.87 469.889 36.922C469.889 36.974 469.867 37 469.824 37C469.668 37 469.442 36.9913 469.148 36.974C468.818 36.9567 468.532 36.948 468.29 36.948C468.064 36.948 467.804 36.9567 467.51 36.974C467.25 36.9913 467.033 37 466.86 37C466.816 37 466.795 36.974 466.795 36.922C466.795 36.87 466.816 36.844 466.86 36.844C467.102 36.844 467.306 36.8007 467.471 36.714C467.644 36.6187 467.804 36.4583 467.952 36.233C468.108 35.999 468.277 35.6653 468.459 35.232L471.202 28.758C471.219 28.732 471.249 28.719 471.293 28.719C471.336 28.719 471.362 28.732 471.371 28.758L474.439 35.219C474.733 35.8603 474.985 36.2937 475.193 36.519C475.401 36.7357 475.648 36.844 475.934 36.844ZM478.38 35.895C478.38 36.1463 478.406 36.3283 478.458 36.441C478.51 36.5537 478.605 36.6317 478.744 36.675C478.882 36.7097 479.108 36.727 479.42 36.727H480.837C481.331 36.727 481.725 36.5753 482.02 36.272C482.314 35.9687 482.509 35.5483 482.605 35.011C482.605 34.985 482.626 34.9763 482.67 34.985C482.722 34.985 482.748 34.998 482.748 35.024C482.67 35.7433 482.631 36.337 482.631 36.805C482.631 36.8743 482.618 36.9263 482.592 36.961C482.566 36.987 482.514 37 482.436 37H476.43C476.412 37 476.404 36.974 476.404 36.922C476.404 36.87 476.412 36.844 476.43 36.844C476.759 36.844 476.997 36.8223 477.145 36.779C477.301 36.7357 477.405 36.6533 477.457 36.532C477.509 36.402 477.535 36.207 477.535 35.947V29.928C477.535 29.668 477.509 29.4773 477.457 29.356C477.405 29.2347 477.301 29.1523 477.145 29.109C476.997 29.057 476.759 29.031 476.43 29.031C476.412 29.031 476.404 29.005 476.404 28.953C476.404 28.901 476.412 28.875 476.43 28.875L477.067 28.888C477.431 28.9053 477.725 28.914 477.951 28.914C478.193 28.914 478.497 28.9053 478.861 28.888L479.485 28.875C479.511 28.875 479.524 28.901 479.524 28.953C479.524 29.005 479.511 29.031 479.485 29.031C479.164 29.031 478.926 29.057 478.77 29.109C478.614 29.1523 478.51 29.239 478.458 29.369C478.406 29.4903 478.38 29.681 478.38 29.941V35.895ZM485.046 29.109C484.508 29.109 484.101 29.2477 483.824 29.525C483.555 29.8023 483.36 30.2747 483.239 30.942C483.239 30.9593 483.213 30.968 483.161 30.968C483.117 30.968 483.096 30.9593 483.096 30.942C483.13 30.63 483.169 30.2227 483.213 29.72C483.256 29.2173 483.278 28.8403 483.278 28.589C483.278 28.5457 483.299 28.524 483.343 28.524C483.395 28.524 483.421 28.5457 483.421 28.589C483.421 28.7797 483.655 28.875 484.123 28.875C484.868 28.901 485.739 28.914 486.736 28.914C487.247 28.914 487.789 28.9053 488.361 28.888L489.245 28.875C489.557 28.875 489.786 28.8533 489.934 28.81C490.09 28.7667 490.189 28.68 490.233 28.55C490.241 28.5153 490.267 28.498 490.311 28.498C490.354 28.498 490.376 28.5153 490.376 28.55C490.35 28.8013 490.324 29.1827 490.298 29.694C490.272 30.2053 490.259 30.6213 490.259 30.942C490.259 30.9593 490.233 30.968 490.181 30.968C490.129 30.968 490.103 30.9593 490.103 30.942C490.077 30.266 489.938 29.7937 489.687 29.525C489.435 29.2477 489.019 29.109 488.439 29.109C488.049 29.109 487.771 29.1263 487.607 29.161C487.442 29.1957 487.329 29.2693 487.269 29.382C487.208 29.4947 487.178 29.6853 487.178 29.954V35.947C487.178 36.2157 487.208 36.4107 487.269 36.532C487.329 36.6533 487.446 36.7357 487.62 36.779C487.793 36.8223 488.066 36.844 488.439 36.844C488.465 36.844 488.478 36.87 488.478 36.922C488.478 36.974 488.465 37 488.439 37C488.153 37 487.923 36.9957 487.75 36.987L486.736 36.974L485.761 36.987C485.587 36.9957 485.349 37 485.046 37C485.028 37 485.02 36.974 485.02 36.922C485.02 36.87 485.028 36.844 485.046 36.844C485.418 36.844 485.691 36.8223 485.865 36.779C486.038 36.7357 486.155 36.6533 486.216 36.532C486.285 36.402 486.32 36.207 486.32 35.947V29.928C486.32 29.6593 486.289 29.473 486.229 29.369C486.168 29.2563 486.055 29.187 485.891 29.161C485.726 29.1263 485.444 29.109 485.046 29.109ZM498.264 29.954C498.264 29.694 498.233 29.5033 498.173 29.382C498.121 29.252 498.017 29.161 497.861 29.109C497.705 29.057 497.458 29.031 497.12 29.031C497.094 29.031 497.081 29.005 497.081 28.953C497.081 28.901 497.094 28.875 497.12 28.875L497.744 28.888C498.125 28.9053 498.441 28.914 498.693 28.914C498.927 28.914 499.226 28.9053 499.59 28.888L500.227 28.875C500.253 28.875 500.266 28.901 500.266 28.953C500.266 29.005 500.253 29.031 500.227 29.031C499.897 29.031 499.655 29.057 499.499 29.109C499.343 29.1523 499.234 29.2347 499.174 29.356C499.122 29.4773 499.096 29.668 499.096 29.928V35.947C499.096 36.207 499.122 36.402 499.174 36.532C499.234 36.6533 499.343 36.7357 499.499 36.779C499.655 36.8223 499.897 36.844 500.227 36.844C500.253 36.844 500.266 36.87 500.266 36.922C500.266 36.974 500.253 37 500.227 37C499.958 37 499.746 36.9957 499.59 36.987L498.693 36.974L497.744 36.987C497.588 36.9957 497.38 37 497.12 37C497.094 37 497.081 36.974 497.081 36.922C497.081 36.87 497.094 36.844 497.12 36.844C497.458 36.844 497.705 36.8223 497.861 36.779C498.017 36.7357 498.121 36.6533 498.173 36.532C498.233 36.402 498.264 36.207 498.264 35.947V29.954ZM492.817 32.632H498.628V32.905H492.817V32.632ZM492.44 29.928C492.44 29.668 492.409 29.4773 492.349 29.356C492.297 29.2347 492.193 29.1523 492.037 29.109C491.881 29.057 491.638 29.031 491.309 29.031C491.291 29.031 491.283 29.005 491.283 28.953C491.283 28.901 491.291 28.875 491.309 28.875L491.972 28.888C492.336 28.9053 492.626 28.914 492.843 28.914C493.094 28.914 493.41 28.9053 493.792 28.888L494.416 28.875C494.433 28.875 494.442 28.901 494.442 28.953C494.442 29.005 494.433 29.031 494.416 29.031C494.086 29.031 493.839 29.057 493.675 29.109C493.519 29.161 493.41 29.252 493.35 29.382C493.298 29.5033 493.272 29.694 493.272 29.954V35.947C493.272 36.207 493.298 36.402 493.35 36.532C493.41 36.6533 493.519 36.7357 493.675 36.779C493.831 36.8223 494.078 36.844 494.416 36.844C494.433 36.844 494.442 36.87 494.442 36.922C494.442 36.974 494.433 37 494.416 37C494.147 37 493.935 36.9957 493.779 36.987L492.843 36.974L491.946 36.987C491.79 36.9957 491.573 37 491.296 37C491.278 37 491.27 36.974 491.27 36.922C491.27 36.87 491.278 36.844 491.296 36.844C491.625 36.844 491.868 36.8223 492.024 36.779C492.188 36.7357 492.297 36.6533 492.349 36.532C492.409 36.402 492.44 36.207 492.44 35.947V29.928Z" fill="#C49A2A"/>
<defs>
<filter id="filter0_d_2_65" x="325.379" y="474.354" width="53.516" height="62.9352" filterUnits="userSpaceOnUse" color-interpolation-filters="sRGB">
<feFlood flood-opacity="0" result="BackgroundImageFix"/>
<feColorMatrix in="SourceAlpha" type="matrix" values="0 0 0 0 0 0 0 0 0 0 0 0 0 0 0 0 0 0 127 0" result="hardAlpha"/>
<feOffset dy="4"/>
<feGaussianBlur stdDeviation="2"/>
<feComposite in2="hardAlpha" operator="out"/>
<feColorMatrix type="matrix" values="0 0 0 0 0 0 0 0 0 0 0 0 0 0 0 0 0 0 0.25 0"/>
<feBlend mode="normal" in2="BackgroundImageFix" result="effect1_dropShadow_2_65"/>
<feBlend mode="normal" in="SourceGraphic" in2="effect1_dropShadow_2_65" result="shape"/>
</filter>
<filter id="filter1_i_2_65" x="400.469" y="391" width="614.039" height="100" filterUnits="userSpaceOnUse" color-interpolation-filters="sRGB">
<feFlood flood-opacity="0" result="BackgroundImageFix"/>
<feBlend mode="normal" in="SourceGraphic" in2="BackgroundImageFix" result="shape"/>
<feColorMatrix in="SourceAlpha" type="matrix" values="0 0 0 0 0 0 0 0 0 0 0 0 0 0 0 0 0 0 127 0" result="hardAlpha"/>
<feOffset dy="4"/>
<feGaussianBlur stdDeviation="2"/>
<feComposite in2="hardAlpha" operator="arithmetic" k2="-1" k3="1"/>
<feColorMatrix type="matrix" values="0 0 0 0 0 0 0 0 0 0 0 0 0 0 0 0 0 0 0.25 0"/>
<feBlend mode="normal" in2="shape" result="effect1_innerShadow_2_65"/>
</filter>
</defs>
</svg>
